<mxfile host="app.diagrams.net" agent="Mozilla/5.0 (Windows NT 10.0; Win64; x64) AppleWebKit/537.36 (KHTML, like Gecko) Chrome/127.0.0.0 Safari/537.36 Edg/127.0.0.0" version="24.7.7">
  <diagram name="Page-1" id="WRfcpwFMrV_8VeZpeKYh">
    <mxGraphModel dx="1042" dy="575" grid="1" gridSize="10" guides="1" tooltips="1" connect="1" arrows="1" fold="1" page="1" pageScale="1" pageWidth="850" pageHeight="1100" math="0" shadow="0">
      <root>
        <mxCell id="0" />
        <mxCell id="1" parent="0" />
        <mxCell id="jNT-g84KHKGa12L_2n09-60" value="" style="shape=image;verticalLabelPosition=bottom;labelBackgroundColor=default;verticalAlign=top;aspect=fixed;imageAspect=0;image=data:image/svg+xml,PHN2ZyB4bWxucz0iaHR0cDovL3d3dy53My5vcmcvMjAwMC9zdmciIGRhdGEtbmFtZT0i5ZyW5bGkIDEiIGlkPSLlnJblsaRfMSIgdmlld0JveD0iMCAwIDI0IDI0IiBoZWlnaHQ9IjgwMHB4IiB3aWR0aD0iODAwcHgiIGZpbGw9IiMwMDAwMDAiPjx0aXRsZT51c2VyZ3JvdXA8L3RpdGxlPjxwYXRoIGQ9Ik0yMC42OSwxMi4yNGExMC43NCwxMC43NCwwLDAsMS0xLjUyLS43Myw2Ljg2LDYuODYsMCwwLDAsMS40MS0yLjA5QTEuMjcsMS4yNywwLDAsMCwyMSw5YTIuNTEsMi41MSwwLDAsMCwuMzItMiwxLjYxLDEuNjEsMCwwLDAtLjM3LS42LDcuNDYsNy40NiwwLDAsMC0uMjItMS43Miw0LjE1LDQuMTUsMCwwLDAtNC4xNy0yLjgzLDQuMDcsNC4wNywwLDAsMC00LDIuNTYsNS4xOSw1LjE5LDAsMCwwLS43MS0uMDZjLS4xNywwLS4zMiwwLS40NywwYTQuMjEsNC4yMSwwLDAsMC00LTIuNTRBNC4xNSw0LjE1LDAsMCwwLDMuMTYsNC42M2E3LjM5LDcuMzksMCwwLDAtLjIyLDEuNzIsMS42MSwxLjYxLDAsMCwwLS4zNy41OUEyLjUyLDIuNTIsMCwwLDAsMi44OSw5YTEuMjUsMS4yNSwwLDAsMCwuMzkuNDMsOC4xMiw4LjEyLDAsMCwwLDEuNDQsMi4wOSwxMi42LDEyLjYsMCwwLDEtMS41Ni43M0MuMjYsMTMuMzQuMjksMTUuNjkuMzIsMTcuNGExLjg1LDEuODUsMCwwLDAsMS43NSwxLjg1SDRhMTIuMzYsMTIuMzYsMCwwLDAtLjE3LDEuNTEsMiwyLDAsMCwwLC41NCwxLjQ1LDEuNjYsMS42NiwwLDAsMCwxLjIxLjU0SDE4LjQ5YTEuNjgsMS42OCwwLDAsMCwxLjIyLS41NSwxLjk0LDEuOTQsMCwwLDAsLjUzLTEuNDIsMTEuMjksMTEuMjksMCwwLDAtLjItMS41M2gxLjc0YTEuODUsMS44NSwwLDAsMCwxLjc1LTEuODVDMjMuNTUsMTUuNjksMjMuNTksMTMuMzQsMjAuNjksMTIuMjRaTTE0LjU1LDcuNTFhNi4yMSw2LjIxLDAsMCwxLC4xNywxLjY2LjY2LjY2LDAsMCwwLC40Ni43MywxLjMyLDEuMzIsMCwwLDEtLjIxLjg0LDEsMSwwLDAsMC0uNDUuNTZjLS4xNi41NS0xLjI3LDIuNjgtMi42OCwyLjY4cy0yLjUzLTIuMTMtMi43MS0yLjc2YTEuMDksMS4wOSwwLDAsMC0uNDQtLjUxYy0uMjUtLjQ4LS4yNS0uNzctLjItLjgxYS43NS43NSwwLDAsMCwuNDctLjc0LDYuMjEsNi4yMSwwLDAsMSwuMTctMS42NiwyLjY0LDIuNjQsMCwwLDEsMi43Mi0xLjcyQTIuNjEsMi42MSwwLDAsMSwxNC41NSw3LjUxWk0yLjA3LDE3Ljc1Yy0uMDgsMC0uMjUtLjE4LS4yNS0uMzcsMC0xLjg3LjA4LTMuMDUsMS44Ny0zLjczYTE1LjMyLDE1LjMyLDAsMCwwLDIuNzMtMS40Ljc1Ljc1LDAsMCwwLDAtMS4yNkE2LDYsMCwwLDEsNC42Miw4Ljc0YS43OS43OSwwLDAsMC0uNDEtLjQ2Yy0uMjgtLjUyLS4yOC0uODMtLjIzLS44N2EuNzUuNzUsMCwwLDAsLjQ2LS43M0E2LjIyLDYuMjIsMCwwLDEsNC42MSw1LDIuNjQsMi42NCwwLDAsMSw3LjMzLDMuMjksMi42NywyLjY3LDAsMCwxLDkuODcsNC43LDQsNCwwLDAsMCw3LjY2LDcuMTNhNy40MSw3LjQxLDAsMCwwLS4yMiwxLjcxLDEuNiwxLjYsMCwwLDAtLjM3LjU5LDIuNTEsMi41MSwwLDAsMCwuMzIsMi4wNSwxLjIzLDEuMjMsMCwwLDAsLjM4LjQzQTcuMDcsNy4wNywwLDAsMCw5LjA2LDE0YTYuNzMsNi43MywwLDAsMS0xLjQuNzIsNS4yOCw1LjI4LDAsMCwwLTMuMTksM1ptMTYuNTUsMy40MmEuMjIuMjIsMCwwLDEtLjEzLjA4SDUuNjFhLjIuMiwwLDAsMS0uMTItLjA3LjQ3LjQ3LDAsMCwxLS4xMy0uMzNjLjE1LTIuNjQsMS00LDIuODItNC43QTcuOSw3LjksMCwwLDAsMTAuMjQsMTVhMy4xMywzLjEzLDAsMCwwLDEuNi40NiwzLjIxLDMuMjEsMCwwLDAsMS44My0uNjIsOC44MSw4LjgxLDAsMCwwLDIuMjUsMS4yMywzLjg1LDMuODUsMCwwLDEsMi4zNSwyLjM0LjcxLjcxLDAsMCwwLDAsLjA3Ljc0Ljc0LDAsMCwwLC4yLjQ5LDkuMTgsOS4xOCwwLDAsMSwuMjksMS44OEEuNDMuNDMsMCwwLDEsMTguNjIsMjEuMTdaTTIyLDE3LjM4YzAsLjE5LS4xNy4zNy0uMjUuMzdIMTkuNmE1LjMsNS4zLDAsMCwwLTMuMTUtMy4wNyw3LjcsNy43LDAsMCwxLTEuNjctLjg3LDcuMTcsNy4xNywwLDAsMCwxLjExLTEuODksMS4yOCwxLjI4LDAsMCwwLC4zOC0uNDUsMi41NiwyLjU2LDAsMCwwLC4yOS0yLjE3LDEuNSwxLjUsMCwwLDAtLjM0LS40OUE3LjQ1LDcuNDUsMCwwLDAsMTYsNy4xMmE0LDQsMCwwLDAtMi0yLjMzLDIuNTMsMi41MywwLDAsMSwyLjUyLTEuNUEyLjYxLDIuNjEsMCwwLDEsMTkuMjMsNWE2LjIxLDYuMjEsMCwwLDEsLjE3LDEuNjYuOC44LDAsMCwwLC40Ni43NywxLjE3LDEuMTcsMCwwLDEtLjE5Ljc4LDEuMTcsMS4xNywwLDAsMC0uNDcuNiw0LjcxLDQuNzEsMCwwLDEtMS42NiwyLjA2Ljc1Ljc1LDAsMCwwLS4xMywxLjI5LDEzLjU5LDEzLjU5LDAsMCwwLDIuNzUsMS40OEMyMS45NCwxNC4zMiwyMi4wNSwxNS41MSwyMiwxNy4zOFoiLz48L3N2Zz4=;" vertex="1" parent="1">
          <mxGeometry x="545" y="858" width="80" height="80" as="geometry" />
        </mxCell>
        <mxCell id="jNT-g84KHKGa12L_2n09-61" value="&lt;b&gt;المستخدم النهائي&lt;/b&gt;" style="text;html=1;align=center;verticalAlign=middle;resizable=0;points=[];autosize=1;strokeColor=none;fillColor=none;" vertex="1" parent="1">
          <mxGeometry x="540" y="938" width="90" height="30" as="geometry" />
        </mxCell>
        <mxCell id="jNT-g84KHKGa12L_2n09-62" value="" style="endArrow=classic;html=1;rounded=0;entryX=1.046;entryY=0.77;entryDx=0;entryDy=0;entryPerimeter=0;exitX=0;exitY=0;exitDx=0;exitDy=0;" edge="1" parent="1" source="jNT-g84KHKGa12L_2n09-60">
          <mxGeometry width="50" height="50" relative="1" as="geometry">
            <mxPoint x="450" y="840" as="sourcePoint" />
            <mxPoint x="399.1400000000001" y="723.0999999999999" as="targetPoint" />
          </mxGeometry>
        </mxCell>
        <mxCell id="jNT-g84KHKGa12L_2n09-63" value="" style="endArrow=classic;html=1;rounded=0;exitX=0.99;exitY=1.109;exitDx=0;exitDy=0;exitPerimeter=0;" edge="1" parent="1">
          <mxGeometry width="50" height="50" relative="1" as="geometry">
            <mxPoint x="394.0999999999999" y="733.27" as="sourcePoint" />
            <mxPoint x="540" y="870" as="targetPoint" />
          </mxGeometry>
        </mxCell>
        <mxCell id="jNT-g84KHKGa12L_2n09-64" value="طلب الواجهات" style="text;html=1;align=center;verticalAlign=middle;resizable=0;points=[];autosize=1;strokeColor=none;fillColor=none;rotation=45;" vertex="1" parent="1">
          <mxGeometry x="452.42" y="770" width="80" height="30" as="geometry" />
        </mxCell>
        <mxCell id="jNT-g84KHKGa12L_2n09-65" value="الرد بالواجهات" style="text;html=1;align=center;verticalAlign=middle;resizable=0;points=[];autosize=1;strokeColor=none;fillColor=none;rotation=45;" vertex="1" parent="1">
          <mxGeometry x="420" y="800" width="80" height="30" as="geometry" />
        </mxCell>
        <mxCell id="jNT-g84KHKGa12L_2n09-68" value="" style="endArrow=classic;html=1;rounded=0;entryX=0.662;entryY=0.986;entryDx=0;entryDy=0;entryPerimeter=0;exitX=0.741;exitY=-0.03;exitDx=0;exitDy=0;exitPerimeter=0;" edge="1" parent="1" source="jNT-g84KHKGa12L_2n09-60" target="jNT-g84KHKGa12L_2n09-101">
          <mxGeometry width="50" height="50" relative="1" as="geometry">
            <mxPoint x="610" y="830" as="sourcePoint" />
            <mxPoint x="641.7900000000002" y="690.5" as="targetPoint" />
          </mxGeometry>
        </mxCell>
        <mxCell id="jNT-g84KHKGa12L_2n09-69" value="" style="endArrow=classic;html=1;rounded=0;entryX=0.581;entryY=0.005;entryDx=0;entryDy=0;exitX=0.554;exitY=0.954;exitDx=0;exitDy=0;exitPerimeter=0;entryPerimeter=0;" edge="1" parent="1" source="jNT-g84KHKGa12L_2n09-101" target="jNT-g84KHKGa12L_2n09-60">
          <mxGeometry width="50" height="50" relative="1" as="geometry">
            <mxPoint x="630.24" y="691.49" as="sourcePoint" />
            <mxPoint x="752" y="610" as="targetPoint" />
          </mxGeometry>
        </mxCell>
        <mxCell id="jNT-g84KHKGa12L_2n09-70" value="الرد بالمعطيات" style="text;html=1;align=center;verticalAlign=middle;resizable=0;points=[];autosize=1;strokeColor=none;fillColor=none;rotation=15;" vertex="1" parent="1">
          <mxGeometry x="550" y="690" width="80" height="30" as="geometry" />
        </mxCell>
        <mxCell id="jNT-g84KHKGa12L_2n09-71" value="طلبات المعطيات" style="text;html=1;align=center;verticalAlign=middle;resizable=0;points=[];autosize=1;strokeColor=none;fillColor=none;rotation=15;" vertex="1" parent="1">
          <mxGeometry x="610" y="760" width="90" height="30" as="geometry" />
        </mxCell>
        <mxCell id="jNT-g84KHKGa12L_2n09-75" value="" style="endArrow=classic;html=1;rounded=0;entryX=0.52;entryY=1;entryDx=0;entryDy=0;exitX=0.75;exitY=0;exitDx=0;exitDy=0;entryPerimeter=0;" edge="1" parent="1">
          <mxGeometry width="50" height="50" relative="1" as="geometry">
            <mxPoint x="650" y="601.9999999999999" as="sourcePoint" />
            <mxPoint x="857.8000000000002" y="477.0000000000001" as="targetPoint" />
          </mxGeometry>
        </mxCell>
        <mxCell id="jNT-g84KHKGa12L_2n09-76" value="" style="endArrow=classic;html=1;rounded=0;exitX=0.5;exitY=0;exitDx=0;exitDy=0;entryX=0.503;entryY=1.001;entryDx=0;entryDy=0;entryPerimeter=0;" edge="1" parent="1">
          <mxGeometry width="50" height="50" relative="1" as="geometry">
            <mxPoint x="635" y="601.9999999999999" as="sourcePoint" />
            <mxPoint x="634.3599999999999" y="477.0300000000001" as="targetPoint" />
          </mxGeometry>
        </mxCell>
        <mxCell id="jNT-g84KHKGa12L_2n09-77" value="" style="endArrow=classic;html=1;rounded=0;exitX=0.25;exitY=0;exitDx=0;exitDy=0;entryX=0.496;entryY=0.998;entryDx=0;entryDy=0;entryPerimeter=0;" edge="1" parent="1">
          <mxGeometry width="50" height="50" relative="1" as="geometry">
            <mxPoint x="620" y="601.9999999999999" as="sourcePoint" />
            <mxPoint x="439.5999999999999" y="476.94000000000017" as="targetPoint" />
          </mxGeometry>
        </mxCell>
        <mxCell id="jNT-g84KHKGa12L_2n09-81" value="طلبات توليد المخططات" style="text;html=1;align=center;verticalAlign=middle;resizable=0;points=[];autosize=1;strokeColor=none;fillColor=none;rotation=-31;" vertex="1" parent="1">
          <mxGeometry x="695" y="507" width="110" height="30" as="geometry" />
        </mxCell>
        <mxCell id="jNT-g84KHKGa12L_2n09-82" value="طلبات تخزين واسترجاع الموارد" style="text;html=1;align=center;verticalAlign=middle;resizable=0;points=[];autosize=1;strokeColor=none;fillColor=none;rotation=34;" vertex="1" parent="1">
          <mxGeometry x="470" y="517" width="150" height="30" as="geometry" />
        </mxCell>
        <mxCell id="jNT-g84KHKGa12L_2n09-88" value="" style="endArrow=classic;html=1;rounded=0;entryX=0.839;entryY=0.051;entryDx=0;entryDy=0;entryPerimeter=0;" edge="1" parent="1">
          <mxGeometry width="50" height="50" relative="1" as="geometry">
            <mxPoint x="851" y="490" as="sourcePoint" />
            <mxPoint x="657.3399999999999" y="606.06" as="targetPoint" />
          </mxGeometry>
        </mxCell>
        <mxCell id="jNT-g84KHKGa12L_2n09-89" value="نتيجة" style="text;html=1;align=center;verticalAlign=middle;resizable=0;points=[];autosize=1;strokeColor=none;fillColor=none;rotation=-31;" vertex="1" parent="1">
          <mxGeometry x="750" y="547" width="40" height="30" as="geometry" />
        </mxCell>
        <mxCell id="jNT-g84KHKGa12L_2n09-90" value="" style="endArrow=classic;html=1;rounded=0;" edge="1" parent="1">
          <mxGeometry width="50" height="50" relative="1" as="geometry">
            <mxPoint x="644" y="480" as="sourcePoint" />
            <mxPoint x="644" y="600" as="targetPoint" />
          </mxGeometry>
        </mxCell>
        <mxCell id="jNT-g84KHKGa12L_2n09-91" value="طلبات الإدارة" style="text;html=1;align=center;verticalAlign=middle;resizable=0;points=[];autosize=1;strokeColor=none;fillColor=none;rotation=0;" vertex="1" parent="1">
          <mxGeometry x="560" y="517" width="80" height="30" as="geometry" />
        </mxCell>
        <mxCell id="jNT-g84KHKGa12L_2n09-92" value="نتيجة" style="text;html=1;align=center;verticalAlign=middle;resizable=0;points=[];autosize=1;strokeColor=none;fillColor=none;rotation=0;" vertex="1" parent="1">
          <mxGeometry x="650" y="500" width="40" height="30" as="geometry" />
        </mxCell>
        <mxCell id="jNT-g84KHKGa12L_2n09-93" value="" style="endArrow=classic;html=1;rounded=0;entryX=0;entryY=0;entryDx=0;entryDy=0;" edge="1" parent="1">
          <mxGeometry width="50" height="50" relative="1" as="geometry">
            <mxPoint x="429" y="481" as="sourcePoint" />
            <mxPoint x="604" y="603" as="targetPoint" />
          </mxGeometry>
        </mxCell>
        <mxCell id="jNT-g84KHKGa12L_2n09-94" value="نتيجة" style="text;html=1;align=center;verticalAlign=middle;resizable=0;points=[];autosize=1;strokeColor=none;fillColor=none;rotation=35;" vertex="1" parent="1">
          <mxGeometry x="487.5" y="537" width="40" height="30" as="geometry" />
        </mxCell>
        <mxCell id="jNT-g84KHKGa12L_2n09-97" value="" style="endArrow=classic;html=1;rounded=0;exitX=0.574;exitY=-0.028;exitDx=0;exitDy=0;exitPerimeter=0;" edge="1" parent="1">
          <mxGeometry width="50" height="50" relative="1" as="geometry">
            <mxPoint x="861" y="420" as="sourcePoint" />
            <mxPoint x="862" y="365" as="targetPoint" />
          </mxGeometry>
        </mxCell>
        <mxCell id="jNT-g84KHKGa12L_2n09-98" value="" style="endArrow=classic;html=1;rounded=0;exitX=0.336;exitY=1.096;exitDx=0;exitDy=0;entryX=0.25;entryY=0;entryDx=0;entryDy=0;exitPerimeter=0;" edge="1" parent="1">
          <mxGeometry width="50" height="50" relative="1" as="geometry">
            <mxPoint x="852.96" y="365.88" as="sourcePoint" />
            <mxPoint x="852" y="423" as="targetPoint" />
          </mxGeometry>
        </mxCell>
        <mxCell id="jNT-g84KHKGa12L_2n09-99" value="&lt;b style=&quot;text-wrap: nowrap;&quot;&gt;خدمة الواجهات&amp;nbsp;&lt;/b&gt;" style="rounded=0;whiteSpace=wrap;html=1;" vertex="1" parent="1">
          <mxGeometry x="305" y="690" width="85" height="37" as="geometry" />
        </mxCell>
        <mxCell id="jNT-g84KHKGa12L_2n09-101" value="&lt;b style=&quot;text-wrap: nowrap;&quot;&gt;خدمة البوابة&lt;/b&gt;" style="rounded=0;whiteSpace=wrap;html=1;" vertex="1" parent="1">
          <mxGeometry x="591.5" y="610" width="85" height="37" as="geometry" />
        </mxCell>
        <mxCell id="jNT-g84KHKGa12L_2n09-102" value="&lt;b style=&quot;text-wrap: nowrap;&quot;&gt;خدمة إدارة عمليات النظام&lt;/b&gt;" style="rounded=0;whiteSpace=wrap;html=1;" vertex="1" parent="1">
          <mxGeometry x="566.5" y="440" width="135" height="37" as="geometry" />
        </mxCell>
        <mxCell id="jNT-g84KHKGa12L_2n09-103" value="&lt;b style=&quot;text-wrap: nowrap;&quot;&gt;خدمة تخزين الموارد&lt;/b&gt;" style="rounded=0;whiteSpace=wrap;html=1;" vertex="1" parent="1">
          <mxGeometry x="357.99999999999994" y="440" width="135" height="37" as="geometry" />
        </mxCell>
        <mxCell id="jNT-g84KHKGa12L_2n09-104" value="&lt;b style=&quot;text-wrap: nowrap;&quot;&gt;خدمة توليد مخططات BPMN&lt;/b&gt;" style="rounded=0;whiteSpace=wrap;html=1;" vertex="1" parent="1">
          <mxGeometry x="785" y="430" width="135" height="37" as="geometry" />
        </mxCell>
        <mxCell id="jNT-g84KHKGa12L_2n09-105" value="&lt;b style=&quot;text-wrap: nowrap;&quot;&gt;نموذج اللغة الكبير (LLM)&lt;/b&gt;" style="rounded=0;whiteSpace=wrap;html=1;" vertex="1" parent="1">
          <mxGeometry x="785" y="320" width="135" height="37" as="geometry" />
        </mxCell>
      </root>
    </mxGraphModel>
  </diagram>
</mxfile>
